<svg width="116" height="132" viewBox="0 0 116 132" fill="none" xmlns="http://www.w3.org/2000/svg">
<path d="M57.6562 75.0625C57.6562 73.2917 57.0312 71.9375 55.7812 71C54.5312 70.0417 52.2812 69.0417 49.0312 68C45.7812 66.9375 43.2083 65.8958 41.3125 64.875C36.1458 62.0833 33.5625 58.3229 33.5625 53.5938C33.5625 51.1354 34.25 48.9479 35.625 47.0312C37.0208 45.0938 39.0104 43.5833 41.5938 42.5C44.1979 41.4167 47.1146 40.875 50.3438 40.875C53.5938 40.875 56.4896 41.4688 59.0312 42.6562C61.5729 43.8229 63.5417 45.4792 64.9375 47.625C66.3542 49.7708 67.0625 52.2083 67.0625 54.9375H57.6875C57.6875 52.8542 57.0312 51.2396 55.7188 50.0938C54.4062 48.9271 52.5625 48.3438 50.1875 48.3438C47.8958 48.3438 46.1146 48.8333 44.8438 49.8125C43.5729 50.7708 42.9375 52.0417 42.9375 53.625C42.9375 55.1042 43.6771 56.3438 45.1562 57.3438C46.6562 58.3438 48.8542 59.2812 51.75 60.1562C57.0833 61.7604 60.9688 63.75 63.4062 66.125C65.8438 68.5 67.0625 71.4583 67.0625 75C67.0625 78.9375 65.5729 82.0312 62.5938 84.2812C59.6146 86.5104 55.6042 87.625 50.5625 87.625C47.0625 87.625 43.875 86.9896 41 85.7188C38.125 84.4271 35.9271 82.6667 34.4062 80.4375C32.9062 78.2083 32.1562 75.625 32.1562 72.6875H41.5625C41.5625 77.7083 44.5625 80.2188 50.5625 80.2188C52.7917 80.2188 54.5312 79.7708 55.7812 78.875C57.0312 77.9583 57.6562 76.6875 57.6562 75.0625Z" fill="#80FAFF"/>
<path d="M56.04 5.80228C61.913 6.39155 67.6792 7.83824 73.1524 10.1053C80.4926 13.1457 87.162 17.6021 92.78 23.2201C98.3979 28.838 102.854 35.5075 105.895 42.8477C108.935 50.1879 110.5 58.0551 110.5 66C110.5 73.945 108.935 81.8122 105.895 89.1524C102.854 96.4926 98.3979 103.162 92.78 108.78C87.162 114.398 80.4925 118.854 73.1524 121.895C67.6792 124.162 61.913 125.609 56.04 126.198C55.9649 126.205 55.9284 126.195 55.9065 126.187C55.8772 126.176 55.8255 126.15 55.7627 126.09C55.6303 125.961 55.5 125.724 55.5 125.4C55.5 125.126 55.5995 124.822 55.8985 124.511C56.2165 124.181 56.7039 123.916 57.2686 123.845C62.4272 123.197 67.4869 121.86 72.3104 119.862C79.3837 116.932 85.8107 112.638 91.2243 107.224C96.638 101.811 100.932 95.3838 103.862 88.3105C106.792 81.2372 108.3 73.6561 108.3 66C108.3 58.344 106.792 50.7629 103.862 43.6896C100.932 36.6163 96.638 30.1894 91.2243 24.7757C85.8107 19.3621 79.3837 15.0677 72.3105 12.1379C67.4869 10.1399 62.4272 8.80312 57.2686 8.15491C56.7039 8.08395 56.2165 7.81953 55.8985 7.48907C55.5995 7.1783 55.5 6.87408 55.5 6.60003C55.5 6.27569 55.6303 6.0389 55.7627 5.91048C55.8255 5.84969 55.8772 5.82378 55.9065 5.81316C55.9284 5.80522 55.9649 5.79474 56.04 5.80228Z" stroke="#80FAFF" stroke-width="11" stroke-miterlimit="1" stroke-linecap="round" stroke-linejoin="round"/>
</svg>
